<svg width="39" height="39" viewBox="0 0 39 39" fill="none" xmlns="http://www.w3.org/2000/svg">
<g id="lope">
<circle id="Ellipse 4" cx="19.5" cy="19.5" r="19.5" fill="white"/>
<path id="Vector" d="M28.0712 12.9027C26.9569 11.8099 25.4797 11.1455 23.9081 11.0303C22.3365 10.9151 20.775 11.3568 19.5074 12.275C18.1721 11.3012 16.5101 10.8596 14.856 11.0392C13.202 11.2188 11.6787 12.0062 10.5931 13.2428C9.50743 14.4795 8.93999 16.0735 9.00503 17.7039C9.07008 19.3343 9.76278 20.88 10.9436 22.0297L18.7623 29.6956C18.8598 29.7921 18.9759 29.8686 19.1038 29.9209C19.2317 29.9731 19.3689 30 19.5074 30C19.6459 30 19.7831 29.9731 19.911 29.9209C20.0389 29.8686 20.155 29.7921 20.2525 29.6956L28.0712 22.0297C28.6827 21.4306 29.1677 20.7192 29.4987 19.9361C29.8297 19.1531 30 18.3138 30 17.4662C30 16.6186 29.8297 15.7793 29.4987 14.9963C29.1677 14.2132 28.6827 13.5018 28.0712 12.9027ZM26.5914 20.5789L19.5074 27.5142L12.4234 20.5789C11.7991 19.9642 11.3739 19.1826 11.201 18.3319C11.0281 17.4812 11.1153 16.5995 11.4515 15.7972C11.7878 14.9949 12.3582 14.3078 13.0912 13.8222C13.8242 13.3365 14.6872 13.0739 15.5718 13.0673C16.7537 13.0701 17.8861 13.5327 18.7203 14.3535C18.8179 14.45 18.9339 14.5265 19.0618 14.5788C19.1897 14.631 19.3269 14.6579 19.4654 14.6579C19.604 14.6579 19.7411 14.631 19.869 14.5788C19.9969 14.5265 20.113 14.45 20.2106 14.3535C21.0694 13.6239 22.1789 13.2413 23.3144 13.2834C24.45 13.3255 25.5269 13.789 26.3271 14.5801C27.1273 15.3712 27.5911 16.4309 27.6246 17.5446C27.6581 18.6583 27.2588 19.7429 26.5074 20.5789H26.5914Z" fill="black"/>
</g>
</svg>
